<?xml version="1.0" encoding="UTF-8" standalone="no"?><svg xmlns="http://www.w3.org/2000/svg" xmlns:xlink="http://www.w3.org/1999/xlink" contentScriptType="application/ecmascript" contentStyleType="text/css" height="459px" preserveAspectRatio="none" style="width:569px;height:459px;" version="1.1" viewBox="0 0 569 459" width="569px" zoomAndPan="magnify"><defs><filter height="300%" id="f17manohmaiqtv" width="300%" x="-1" y="-1"><feGaussianBlur result="blurOut" stdDeviation="2.0"/><feColorMatrix in="blurOut" result="blurOut2" type="matrix" values="0 0 0 0 0 0 0 0 0 0 0 0 0 0 0 0 0 0 .4 0"/><feOffset dx="4.0" dy="4.0" in="blurOut2" result="blurOut3"/><feBlend in="SourceGraphic" in2="blurOut3" mode="normal"/></filter></defs><g><!--cluster Server--><polygon fill="#009FDA" filter="url(#f17manohmaiqtv)" points="289,138.5,299,128.5,547,128.5,547,437,537,447,289,447,289,138.5" style="stroke: #1A409F; stroke-width: 1.5;"/><line style="stroke: #1A409F; stroke-width: 1.5;" x1="537" x2="546" y1="138.5" y2="129.5"/><line style="stroke: #1A409F; stroke-width: 1.5;" x1="289" x2="537" y1="138.5" y2="138.5"/><line style="stroke: #1A409F; stroke-width: 1.5;" x1="537" x2="537" y1="138.5" y2="447"/><text fill="#FFFFFF" font-family="Verdana" font-size="14" font-weight="bold" lengthAdjust="spacingAndGlyphs" textLength="51" x="388.5" y="155.5752">Server</text><!--cluster VM--><polygon fill="#009FDA" filter="url(#f17manohmaiqtv)" points="329,195.5,339,185.5,515,185.5,515,405,505,415,329,415,329,195.5" style="stroke: #1A409F; stroke-width: 1.5;"/><line style="stroke: #1A409F; stroke-width: 1.5;" x1="505" x2="514" y1="195.5" y2="186.5"/><line style="stroke: #1A409F; stroke-width: 1.5;" x1="329" x2="505" y1="195.5" y2="195.5"/><line style="stroke: #1A409F; stroke-width: 1.5;" x1="505" x2="505" y1="195.5" y2="415"/><text fill="#FFFFFF" font-family="Verdana" font-size="14" font-weight="bold" lengthAdjust="spacingAndGlyphs" textLength="24" x="406" y="212.5752">VM</text><!--entity mongodb--><path d="M345.5,236.5 C345.5,226.5 389,226.5 389,226.5 C389,226.5 432.5,226.5 432.5,236.5 L432.5,262.5146 C432.5,272.5146 389,272.5146 389,272.5146 C389,272.5146 345.5,272.5146 345.5,262.5146 L345.5,236.5 " fill="#009FDA" filter="url(#f17manohmaiqtv)" style="stroke: #1A409F; stroke-width: 1.5;"/><path d="M345.5,236.5 C345.5,246.5 389,246.5 389,246.5 C389,246.5 432.5,246.5 432.5,236.5 " fill="none" style="stroke: #1A409F; stroke-width: 1.5;"/><text fill="#FFFFFF" font-family="Verdana" font-size="14" lengthAdjust="spacingAndGlyphs" textLength="67" x="355.5" y="264.5752">mongodb</text><!--entity nodejs--><polygon fill="#009FDA" filter="url(#f17manohmaiqtv)" points="345,362,355,352,433,352,433,389.0146,423,399.0146,345,399.0146,345,362" style="stroke: #1A409F; stroke-width: 1.5;"/><line style="stroke: #1A409F; stroke-width: 1.5;" x1="423" x2="432" y1="362" y2="353"/><line style="stroke: #1A409F; stroke-width: 1.5;" x1="345" x2="423" y1="362" y2="362"/><line style="stroke: #1A409F; stroke-width: 1.5;" x1="423" x2="423" y1="362" y2="399.0146"/><text fill="#FFFFFF" font-family="Verdana" font-size="14" lengthAdjust="spacingAndGlyphs" textLength="48" x="360" y="386.0752">nodejs</text><!--entity iPad--><polygon fill="#009FDA" filter="url(#f17manohmaiqtv)" points="6,236,16,226,74,226,74,263.0146,64,273.0146,6,273.0146,6,236" style="stroke: #1A409F; stroke-width: 1.5;"/><line style="stroke: #1A409F; stroke-width: 1.5;" x1="64" x2="73" y1="236" y2="227"/><line style="stroke: #1A409F; stroke-width: 1.5;" x1="6" x2="64" y1="236" y2="236"/><line style="stroke: #1A409F; stroke-width: 1.5;" x1="64" x2="64" y1="236" y2="273.0146"/><text fill="#FFFFFF" font-family="Verdana" font-size="14" lengthAdjust="spacingAndGlyphs" textLength="28" x="21" y="260.0752">iPad</text><!--entity Router--><polygon fill="#009FDA" filter="url(#f17manohmaiqtv)" points="140,236,150,226,228,226,228,263.0146,218,273.0146,140,273.0146,140,236" style="stroke: #1A409F; stroke-width: 1.5;"/><line style="stroke: #1A409F; stroke-width: 1.5;" x1="218" x2="227" y1="236" y2="227"/><line style="stroke: #1A409F; stroke-width: 1.5;" x1="140" x2="218" y1="236" y2="236"/><line style="stroke: #1A409F; stroke-width: 1.5;" x1="218" x2="218" y1="236" y2="273.0146"/><text fill="#FFFFFF" font-family="Verdana" font-size="14" lengthAdjust="spacingAndGlyphs" textLength="48" x="155" y="260.0752">Router</text><!--entity Internet--><path d="M263.3172,18.1502 C265.4647,11.6407 269.0934,10.1957 274.4377,15.0111 C277.9366,9.1776 281.9036,9.7777 285.5569,14.8537 C287.5944,8.8938 292.0165,6.4852 297.0895,11.729 C301.4851,7.4781 305.9693,8.1984 308.8774,13.5543 C313.7217,8.7589 320.2243,9.5567 322.3596,16.6314 C325.6582,10.532 331.3389,10.509 334.6192,16.6497 C344.567,16.9309 347.8959,25.2242 342.9054,33.052 C347.4729,42.7288 344.9539,48.3053 333.8124,49.0575 C331.0049,55.2953 327.0568,55.7019 322.2646,51.1895 C320.5207,58.2702 316.8833,59.1714 310.8727,55.872 C309.064,63.6454 302.9016,64.2464 298.0079,58.8962 C292.5557,63.1017 288.702,61.5154 286.5095,55.2995 C281.4279,60.2964 276.7507,58.3786 274.5536,52.2106 C269.3894,58.2215 263.8847,55.0318 261.9897,48.8437 C253.6721,46.4363 252.1439,41.2123 256.1847,33.9787 C251.0133,26.8789 253.4918,18.4923 263.3172,18.1502 " fill="#009FDA" style="stroke: #1A409F; stroke-width: 1.5;"/><text fill="#FFFFFF" font-family="Verdana" font-size="14" lengthAdjust="spacingAndGlyphs" textLength="57" x="268.5" y="37.5752">Internet</text><!--link Internet to Server--><path d="M297,55.655 C297,69.271 297,87.8645 297,108.161 C297,113.2351 297,118.4157 297,123.6516 C297,124.9605 297,126.2729 297,127.588 " fill="none" id="Internet-Server" style="stroke: #000000; stroke-width: 1.0;"/><text fill="#000000" font-family="Verdana" font-size="14" lengthAdjust="spacingAndGlyphs" textLength="32" x="298" y="100.5752">eth2</text><!--link iPad to Router--><path d="M74.126,249.5 C93.754,249.5 118.632,249.5 139.749,249.5 " fill="none" id="iPad-Router" style="stroke: #000000; stroke-width: 1.0;"/><text fill="#000000" font-family="Verdana" font-size="14" lengthAdjust="spacingAndGlyphs" textLength="29" x="92.5" y="242.5752">WiFi</text><!--link Router to Server--><path d="M228.012,249.5 C242.885,249.5 258.973,249.5 271.869,249.5 C278.317,249.5 283.967,249.5 288.2681,249.5 C288.4025,249.5 288.5356,249.5 288.6674,249.5 C288.7333,249.5 288.7988,249.5 288.864,249.5 " fill="none" id="Router-Server" style="stroke: #000000; stroke-width: 1.0;"/><text fill="#000000" font-family="Verdana" font-size="14" lengthAdjust="spacingAndGlyphs" textLength="32" x="246.32" y="242.5752">eth1</text><!--link mongodb to nodejs--><path d="M389,272.669 C389,294.96 389,329.165 389,351.684 " fill="none" id="mongodb-nodejs" style="stroke: #000000; stroke-width: 1.0;"/><text fill="#000000" font-family="Verdana" font-size="14" lengthAdjust="spacingAndGlyphs" textLength="117" x="390" y="318.0752">mongoDB native</text><!--
@startuml network



skinparam stereotypeCBackgroundColor 009FDA

skinparam backgroundColor fff






skinparam circledCharacter {
  radius 8
  fontSize 14
  fontName "Verdana"
}

skinparam class {
    backgroundColor 009FDA
  borderColor 1A409F
    fontColor fff
  fontName "Verdana"
  fontSize 14
  stereotypeFontColor 000
  stereotypeFontSize 14
    arrowColor 000
  arrowFontName "Verdana"
  arrowFontColor 000
  arrowFontSize 14

  attributeFontColor 000
  attributeFontSize 14
  attributeIconSize 14
}


skinparam actor {
    backgroundColor 009FDA
  borderColor 1A409F
    fontColor fff
  fontName "Verdana"
  fontSize 14
  stereotypeFontColor 000
  stereotypeFontSize 14
}

skinparam participant {
    backgroundColor 009FDA
  borderColor 1A409F
    fontColor fff
  fontName "Verdana"
  fontSize 14
  stereotypeFontColor 000
  stereotypeFontSize 14
}


skinparam interface {
    backgroundColor 009FDA
  borderColor 1A409F
    fontColor fff
  fontName "Verdana"
  fontSize 14
  stereotypeFontColor 000
  stereotypeFontSize 14
}

skinparam component {
    backgroundColor 009FDA
  borderColor 1A409F
    fontColor fff
  fontName "Verdana"
  fontSize 14
  stereotypeFontColor 000
  stereotypeFontSize 14
}

skinparam node {
    backgroundColor 009FDA
  borderColor 1A409F
    fontColor fff
  fontName "Verdana"
  fontSize 14
  stereotypeFontColor 000
  stereotypeFontSize 14
}

skinparam database {
    backgroundColor 009FDA
  borderColor 1A409F
    fontColor fff
  fontName "Verdana"
  fontSize 14
  stereotypeFontColor 000
  stereotypeFontSize 14
}

skinparam queue {
    backgroundColor 009FDA
  borderColor 1A409F
    fontColor fff
  fontName "Verdana"
  fontSize 14
  stereotypeFontColor 000
  stereotypeFontSize 14
}


skinparam usecase {
    backgroundColor 009FDA
  borderColor 1A409F
    fontColor fff
  fontName "Verdana"
  fontSize 14
  stereotypeFontColor 000
  stereotypeFontSize 14
    arrowColor 000
  arrowFontName "Verdana"
  arrowFontColor 000
  arrowFontSize 14
}

skinparam activity {
    backgroundColor 009FDA
  borderColor 1A409F
    fontColor fff
  fontName "Verdana"
  fontSize 14
  stereotypeFontColor 000
  stereotypeFontSize 14
    arrowColor 000
  arrowFontName "Verdana"
  arrowFontColor 000
  arrowFontSize 14
}

skinparam sequence {
    fontColor fff
  fontName "Verdana"
  fontSize 14
  stereotypeFontColor 000
  stereotypeFontSize 14
    arrowColor 000
  arrowFontName "Verdana"
  arrowFontColor 000
  arrowFontSize 14

  lifeLineBorderColor 000
  lifeLineBackgroundColor 000
}

skinparam boundary {
    backgroundColor 009FDA
  borderColor 1A409F
    fontColor fff
  fontName "Verdana"
  fontSize 14
  stereotypeFontColor 000
  stereotypeFontSize 14
}

skinparam control {
    backgroundColor 009FDA
  borderColor 1A409F
    fontColor fff
  fontName "Verdana"
  fontSize 14
  stereotypeFontColor 000
  stereotypeFontSize 14
}

skinparam entity {
    backgroundColor 009FDA
  borderColor 1A409F
    fontColor fff
  fontName "Verdana"
  fontSize 14
  stereotypeFontColor 000
  stereotypeFontSize 14
}


skinparam state {
    backgroundColor 009FDA
  borderColor 1A409F
    fontColor fff
  fontName "Verdana"
  fontSize 14
  stereotypeFontColor 000
  stereotypeFontSize 14
    arrowColor 000
  arrowFontName "Verdana"
  arrowFontColor 000
  arrowFontSize 14
  startColor 009FDA
  endColor 1A409F
}


skinparam object {
    backgroundColor 009FDA
  borderColor 1A409F
    fontColor fff
  fontName "Verdana"
  fontSize 14
  stereotypeFontColor 000
  stereotypeFontSize 14
    arrowColor 000
  arrowFontName "Verdana"
  arrowFontColor 000
  arrowFontSize 14
}


skinparam note {
    backgroundColor 009FDA
  borderColor 1A409F
    fontColor fff
  fontName "Verdana"
  fontSize 14
  stereotypeFontColor 000
  stereotypeFontSize 14
}

skinparam cloud {
    backgroundColor 009FDA
  borderColor 1A409F
    fontColor fff
  fontName "Verdana"
  fontSize 14
  stereotypeFontColor 000
  stereotypeFontSize 14
    arrowColor 000
  arrowFontName "Verdana"
  arrowFontColor 000
  arrowFontSize 14
}

skinparam rectangle {
    backgroundColor 009FDA
  borderColor 1A409F
    fontColor fff
  fontName "Verdana"
  fontSize 14
  stereotypeFontColor 000
  stereotypeFontSize 14
}

skinparam storage {
    backgroundColor 009FDA
  borderColor 1A409F
    fontColor fff
  fontName "Verdana"
  fontSize 14
  stereotypeFontColor 000
  stereotypeFontSize 14
}


node Server {
    node "VM" {
        database "mongodb"
        node "nodejs"
    }
}

node "iPad"

node Router

cloud Internet

Internet -down- Server : eth2
iPad -right- Router : WiFi
Router -right- Server : eth1
mongodb -down- nodejs: mongoDB native


@enduml

PlantUML version 1.2019.09(Mon Aug 26 17:19:51 BST 2019)
(GPL source distribution)
Java Runtime: Java(TM) SE Runtime Environment
JVM: Java HotSpot(TM) Client VM
Java Version: 1.8.0_211-b12
Operating System: Windows 10
OS Version: 10.0
Default Encoding: Cp1252
Language: en
Country: GB
--></g></svg>